<mxfile host="app.diagrams.net" modified="2024-06-17T12:03:58.088Z" agent="Mozilla/5.0 (Windows NT 10.0; Win64; x64; rv:127.0) Gecko/20100101 Firefox/127.0" etag="enUZ9KQFMH-wfk96uWU9" version="24.5.4" type="device">
  <diagram name="Page-1" id="nBQX20TjaKYMh0YCbtW1">
    <mxGraphModel dx="1050" dy="558" grid="1" gridSize="10" guides="1" tooltips="1" connect="1" arrows="1" fold="1" page="1" pageScale="1" pageWidth="850" pageHeight="1100" math="0" shadow="0">
      <root>
        <mxCell id="0" />
        <mxCell id="1" parent="0" />
        <mxCell id="5CTU-9aler_ooxlvJu2N-1" value="" style="whiteSpace=wrap;html=1;" vertex="1" parent="1">
          <mxGeometry x="40" y="40" width="120" height="60" as="geometry" />
        </mxCell>
        <mxCell id="5CTU-9aler_ooxlvJu2N-2" value="" style="ellipse;whiteSpace=wrap;html=1;" vertex="1" parent="1">
          <mxGeometry x="200" y="40" width="80" height="80" as="geometry" />
        </mxCell>
        <mxCell id="5CTU-9aler_ooxlvJu2N-3" value="" style="rhombus;whiteSpace=wrap;html=1;" vertex="1" parent="1">
          <mxGeometry x="320" y="40" width="80" height="80" as="geometry" />
        </mxCell>
        <mxCell id="5CTU-9aler_ooxlvJu2N-4" value="" style="rounded=1;whiteSpace=wrap;html=1;" vertex="1" parent="1">
          <mxGeometry x="440" y="50" width="120" height="60" as="geometry" />
        </mxCell>
        <mxCell id="5CTU-9aler_ooxlvJu2N-5" value="" style="shape=parallelogram;perimeter=parallelogramPerimeter;whiteSpace=wrap;html=1;fixedSize=1;" vertex="1" parent="1">
          <mxGeometry x="600" y="50" width="120" height="60" as="geometry" />
        </mxCell>
        <mxCell id="5CTU-9aler_ooxlvJu2N-6" value="" style="shape=trapezoid;perimeter=trapezoidPerimeter;whiteSpace=wrap;html=1;fixedSize=1;" vertex="1" parent="1">
          <mxGeometry x="40" y="140" width="120" height="60" as="geometry" />
        </mxCell>
        <mxCell id="5CTU-9aler_ooxlvJu2N-7" value="" style="shape=hexagon;perimeter=hexagonPerimeter2;whiteSpace=wrap;html=1;fixedSize=1;" vertex="1" parent="1">
          <mxGeometry x="190" y="130" width="120" height="80" as="geometry" />
        </mxCell>
        <mxCell id="5CTU-9aler_ooxlvJu2N-8" value="" style="shape=step;perimeter=stepPerimeter;whiteSpace=wrap;html=1;fixedSize=1;" vertex="1" parent="1">
          <mxGeometry x="340" y="130" width="120" height="80" as="geometry" />
        </mxCell>
        <mxCell id="5CTU-9aler_ooxlvJu2N-9" value="" style="shape=process;whiteSpace=wrap;html=1;backgroundOutline=1;" vertex="1" parent="1">
          <mxGeometry x="480" y="140" width="120" height="60" as="geometry" />
        </mxCell>
        <mxCell id="5CTU-9aler_ooxlvJu2N-10" value="" style="triangle;whiteSpace=wrap;html=1;" vertex="1" parent="1">
          <mxGeometry x="630" y="130" width="60" height="80" as="geometry" />
        </mxCell>
        <mxCell id="5CTU-9aler_ooxlvJu2N-11" value="" style="shape=document;whiteSpace=wrap;html=1;boundedLbl=1;" vertex="1" parent="1">
          <mxGeometry x="40" y="230" width="120" height="80" as="geometry" />
        </mxCell>
        <mxCell id="5CTU-9aler_ooxlvJu2N-12" value="" style="ellipse;shape=cloud;whiteSpace=wrap;html=1;" vertex="1" parent="1">
          <mxGeometry x="190" y="230" width="120" height="80" as="geometry" />
        </mxCell>
        <mxCell id="5CTU-9aler_ooxlvJu2N-13" value="" style="shape=tape;whiteSpace=wrap;html=1;" vertex="1" parent="1">
          <mxGeometry x="340" y="220" width="120" height="100" as="geometry" />
        </mxCell>
        <mxCell id="5CTU-9aler_ooxlvJu2N-15" value="" style="shape=singleArrow;whiteSpace=wrap;html=1;arrowWidth=0.4;arrowSize=0.4;" vertex="1" parent="1">
          <mxGeometry x="500" y="240" width="80" height="60" as="geometry" />
        </mxCell>
        <mxCell id="5CTU-9aler_ooxlvJu2N-17" value="" style="shape=singleArrow;whiteSpace=wrap;html=1;arrowWidth=0.4;arrowSize=0.4;rotation=-180;" vertex="1" parent="1">
          <mxGeometry x="600" y="240" width="80" height="60" as="geometry" />
        </mxCell>
        <mxCell id="5CTU-9aler_ooxlvJu2N-19" value="" style="verticalLabelPosition=bottom;verticalAlign=top;html=1;shape=mxgraph.basic.star" vertex="1" parent="1">
          <mxGeometry x="230" y="350" width="100" height="95" as="geometry" />
        </mxCell>
        <mxCell id="5CTU-9aler_ooxlvJu2N-20" value="" style="shape=singleArrow;whiteSpace=wrap;html=1;" vertex="1" parent="1">
          <mxGeometry x="460" y="330" width="100" height="60" as="geometry" />
        </mxCell>
        <mxCell id="5CTU-9aler_ooxlvJu2N-21" value="" style="shape=singleArrow;direction=west;whiteSpace=wrap;html=1;" vertex="1" parent="1">
          <mxGeometry x="580" y="330" width="100" height="60" as="geometry" />
        </mxCell>
      </root>
    </mxGraphModel>
  </diagram>
</mxfile>
